<?xml version="1.0" encoding="UTF-8" standalone="no"?>
<!-- Created with Inkscape (http://www.inkscape.org/) -->

<svg
   width="43.476341mm"
   height="14.199291mm"
   viewBox="0 0 43.476341 14.199292"
   version="1.1"
   id="svg1"
   inkscape:export-filename="logo-kin-prov"
   inkscape:export-xdpi="42.760944"
   inkscape:export-ydpi="42.760944"
   inkscape:version="1.4 (86a8ad7, 2024-10-11)"
   sodipodi:docname="kinetic-logo-svg.svg"
   inkscape:export-batch-path="..\Downloads"
   inkscape:export-batch-name="batch"
   xmlns:inkscape="http://www.inkscape.org/namespaces/inkscape"
   xmlns:sodipodi="http://sodipodi.sourceforge.net/DTD/sodipodi-0.dtd"
   xmlns="http://www.w3.org/2000/svg"
   xmlns:svg="http://www.w3.org/2000/svg">
  <sodipodi:namedview
     id="namedview1"
     pagecolor="#ffffff"
     bordercolor="#000000"
     borderopacity="0.25"
     inkscape:showpageshadow="2"
     inkscape:pageopacity="0.0"
     inkscape:pagecheckerboard="0"
     inkscape:deskcolor="#d1d1d1"
     inkscape:document-units="mm"
     inkscape:zoom="5.8083614"
     inkscape:cx="87.201874"
     inkscape:cy="10.932515"
     inkscape:window-width="1920"
     inkscape:window-height="1017"
     inkscape:window-x="-8"
     inkscape:window-y="-8"
     inkscape:window-maximized="1"
     inkscape:current-layer="layer1"
     inkscape:export-bgcolor="#ffffffa5">
    <inkscape:page
       x="0"
       y="0"
       width="43.476341"
       height="14.199292"
       id="page2"
       margin="0"
       bleed="0" />
  </sodipodi:namedview>
  <defs
     id="defs1">
    <rect
       x="335.37857"
       y="305.42178"
       width="84.016808"
       height="12.051592"
       id="rect1" />
  </defs>
  <g
     inkscape:label="Layer 1"
     inkscape:groupmode="layer"
     id="layer1"
     transform="translate(-78.456309,-70.502117)">
    <path
       d="m 110.01766,72.781623 c -0.14896,0.111927 -0.33364,0.165944 -0.51938,0.151966 h -1.47638 v 4.842484 c 0.0185,0.223017 -0.0482,0.444817 -0.18679,0.620633 -0.0609,0.06668 -0.13573,0.119353 -0.21881,0.15441 -0.0833,0.03506 -0.1733,0.05165 -0.26353,0.04863 -0.0918,0.0028 -0.18282,-0.01413 -0.26749,-0.04958 -0.0844,-0.03548 -0.16034,-0.08869 -0.22257,-0.156025 -0.13938,-0.174572 -0.20709,-0.395525 -0.18936,-0.618066 v -4.842484 h -1.47511 c -0.18346,0.0135 -0.36552,-0.04056 -0.51175,-0.151966 -0.0561,-0.05015 -0.1006,-0.111869 -0.13042,-0.180888 -0.0298,-0.06902 -0.0443,-0.143682 -0.0423,-0.218823 -0.004,-0.07721 0.0105,-0.154215 0.0411,-0.225222 0.0306,-0.07101 0.0769,-0.134159 0.13549,-0.184703 0.14685,-0.109968 0.32867,-0.163052 0.51176,-0.149412 h 4.2999 c 0.18733,-0.01486 0.37333,0.04021 0.52203,0.154521 0.0563,0.05094 0.1008,0.113597 0.13017,0.183545 0.0294,0.06995 0.0431,0.145481 0.04,0.221273 0.003,0.07563 -0.0111,0.150958 -0.041,0.220528 -0.0299,0.06957 -0.0749,0.131643 -0.13176,0.181734 z m 9.93828,3.175968 c 0.0561,0.05408 0.10054,0.119222 0.13017,0.19132 0.0299,0.0721 0.0442,0.149596 0.0423,0.227542 -0.006,0.237517 -0.0587,0.471514 -0.1561,0.688314 -0.2667,0.593698 -0.75248,1.061984 -1.35599,1.307676 -0.38761,0.155813 -0.80275,0.231828 -1.22052,0.223467 -0.32306,0.0027 -0.64532,-0.03111 -0.96097,-0.100885 -0.27702,-0.06144 -0.54266,-0.166635 -0.78661,-0.3116 -0.24526,-0.149093 -0.46434,-0.337159 -0.64875,-0.556763 -0.17939,-0.214048 -0.33073,-0.450082 -0.45033,-0.702363 -0.12726,-0.26416 -0.22119,-0.542951 -0.28019,-0.830077 -0.064,-0.307896 -0.0952,-0.621638 -0.0934,-0.936069 -0.008,-0.490591 0.0717,-0.978681 0.23416,-1.441747 0.14499,-0.405997 0.37386,-0.777091 0.67178,-1.089302 0.28813,-0.299406 0.63711,-0.534054 1.0234,-0.688319 0.39873,-0.159112 0.82445,-0.239351 1.25387,-0.23625 0.50112,-0.0085 0.99695,0.103619 1.44568,0.32692 0.38391,0.182726 0.71702,0.456276 0.97102,0.796864 0.20161,0.256273 0.31909,0.568468 0.33655,0.893919 7.9e-4,0.152302 -0.0582,0.298907 -0.16378,0.408646 -0.0495,0.05642 -0.11033,0.101507 -0.17886,0.132146 -0.0685,0.03064 -0.14287,0.04612 -0.21775,0.04535 -0.1397,0.0082 -0.27702,-0.03755 -0.38391,-0.127691 -0.11721,-0.12551 -0.21458,-0.268028 -0.28919,-0.422696 -0.14473,-0.293428 -0.35798,-0.547875 -0.62177,-0.741949 -0.26167,-0.170101 -0.56938,-0.255707 -0.88133,-0.245192 -0.25611,-0.0088 -0.51038,0.04412 -0.74136,0.15414 -0.23124,0.110025 -0.43259,0.273974 -0.58684,0.477989 -0.32994,0.421418 -0.49504,1.01991 -0.49504,1.79551 -0.0138,0.441404 0.0606,0.881142 0.21881,1.293627 0.12277,0.313055 0.33946,0.580628 0.62045,0.766207 0.28125,0.174202 0.60695,0.262943 0.93768,0.255402 0.35137,0.01143 0.69691,-0.08972 0.98663,-0.288607 0.28443,-0.214022 0.49663,-0.509958 0.60749,-0.847963 0.0468,-0.154173 0.11959,-0.299271 0.2151,-0.429075 0.05,-0.05831 0.11324,-0.103823 0.18442,-0.132689 0.0712,-0.02889 0.14843,-0.04032 0.22489,-0.03331 0.0765,0.0011 0.15187,0.0173 0.22199,0.04778 0.0701,0.03048 0.13335,0.07456 0.18627,0.129725 z M 103.77558,72.71394 c -0.13684,0.105963 -0.30845,0.156982 -0.48107,0.143026 h -3.05257 v 1.637136 h 2.80694 c 0.16602,-0.01315 0.33088,0.03654 0.46185,0.139197 0.0507,0.04601 0.0906,0.102579 0.11687,0.165708 0.0263,0.0631 0.0384,0.131234 0.0354,0.199523 0.003,0.06879 -0.009,0.137345 -0.0351,0.201162 -0.0258,0.06384 -0.0648,0.121497 -0.11454,0.169175 -0.13026,0.106309 -0.29673,0.158036 -0.46442,0.144304 H 100.242 v 1.895104 h 3.15238 c 0.17332,-0.01288 0.34512,0.04003 0.48103,0.14814 0.0536,0.05016 0.0957,0.111284 0.12354,0.17915 0.0278,0.06787 0.0407,0.140917 0.0377,0.21418 0.002,0.07168 -0.0108,0.143007 -0.0386,0.209127 -0.0278,0.06612 -0.0696,0.125465 -0.12256,0.17399 -0.13591,0.108108 -0.30771,0.161025 -0.48103,0.148113 h -3.675649 c -0.294243,0 -0.507471,-0.06511 -0.639683,-0.195368 -0.132213,-0.130254 -0.196612,-0.340968 -0.193199,-0.632142 v -5.005933 c -0.0065,-0.162817 0.02326,-0.325046 0.087,-0.475054 0.05408,-0.119359 0.150124,-0.214778 0.269954,-0.268174 0.149622,-0.06112 0.310542,-0.08984 0.472096,-0.08428 h 3.570731 c 0.17262,-0.01396 0.34422,0.03706 0.48104,0.143027 0.0499,0.04939 0.0896,0.108169 0.11663,0.172939 0.0271,0.06477 0.041,0.134247 0.041,0.20442 0,0.07017 -0.0139,0.139652 -0.041,0.204422 -0.027,0.06477 -0.0667,0.123548 -0.11663,0.17294 z M 81.600163,71.908135 c -0.06322,-0.06673 -0.13997,-0.119243 -0.225126,-0.154035 -0.08516,-0.03479 -0.176763,-0.05106 -0.268716,-0.04773 -0.09177,-0.0045 -0.183385,0.01146 -0.268161,0.04681 -0.08478,0.03535 -0.160571,0.08917 -0.221838,0.157507 -0.132946,0.176051 -0.197076,0.394419 -0.180392,0.614248 v 4.956125 c 0,0.212011 -2e-6,0.374174 0.01407,0.486569 0.0063,0.102341 0.03237,0.202512 0.07676,0.294984 0.058,0.102949 0.143477,0.187827 0.246917,0.245189 0.100603,0.0599 0.215504,0.09165 0.33264,0.09194 0.09169,0.0033 0.183012,-0.01312 0.267779,-0.04815 0.08477,-0.03503 0.160989,-0.08787 0.223502,-0.154887 0.141631,-0.174493 0.21037,-0.396822 0.191905,-0.620633 v -1.377924 l 1.106659,-1.058651 1.599227,2.45446 c 0.06395,0.109802 0.136895,0.23114 0.218757,0.363935 0.07578,0.127344 0.178356,0.236696 0.300673,0.320542 0.137212,0.08602 0.297391,0.12835 0.45929,0.121312 0.174149,0.0095 0.345043,-0.04969 0.475932,-0.16473 0.05482,-0.04776 0.0988,-0.106627 0.129038,-0.172693 0.03021,-0.06607 0.04598,-0.137795 0.04622,-0.210423 -0.0021,-0.14277 -0.03619,-0.28329 -0.09977,-0.411189 -0.08583,-0.173064 -0.186426,-0.338402 -0.300673,-0.494216 l -1.894734,-2.709862 1.643989,-1.555403 c 0.0885,-0.07155 0.161343,-0.160502 0.213942,-0.261343 0.0526,-0.100838 0.08385,-0.211402 0.09181,-0.324813 0.0012,-0.07819 -0.01423,-0.155741 -0.04532,-0.227515 -0.03111,-0.07177 -0.07715,-0.136128 -0.135043,-0.188796 -0.128376,-0.116359 -0.297577,-0.177402 -0.470826,-0.169844 -0.126312,-0.0062 -0.251434,0.02686 -0.35822,0.0945 -0.117316,0.08845 -0.226113,0.187636 -0.324961,0.296269 l -2.655985,2.76475 v -2.336943 c 0.01714,-0.222086 -0.0505,-0.442428 -0.189344,-0.616807 z m 11.948081,0.278392 c -0.05741,-0.09185 -0.124328,-0.177448 -0.199576,-0.255405 -0.06921,-0.0727 -0.153193,-0.129793 -0.2463,-0.167455 -0.09311,-0.03766 -0.193226,-0.05502 -0.293608,-0.05092 -0.153538,-5.34e-4 -0.303874,0.04386 -0.432435,0.127701 -0.128085,0.07939 -0.228574,0.196205 -0.287841,0.334585 -0.05469,0.164552 -0.0794,0.337558 -0.07292,0.510809 l -2.6e-5,5.142588 c -0.01458,0.206745 0.04733,0.411691 0.174016,0.575918 0.05882,0.06212 0.129725,0.111601 0.20836,0.145389 0.07866,0.03381 0.16338,0.05125 0.249025,0.05125 0.08562,0 0.170339,-0.01744 0.248973,-0.05125 0.07866,-0.03379 0.149569,-0.08326 0.208386,-0.145389 0.129752,-0.163803 0.193225,-0.370231 0.177827,-0.578485 v -3.905141 l 2.53701,3.883445 c 0.07334,0.106416 0.146261,0.209841 0.218784,0.310304 0.06914,0.09753 0.14896,0.187034 0.237966,0.266911 0.07943,0.0721 0.171926,0.128429 0.272494,0.166 0.105807,0.03606 0.217012,0.05376 0.328798,0.05236 0.484452,0 0.727101,-0.292867 0.727975,-0.878602 v -5.242176 c 0.01569,-0.207272 -0.04429,-0.413211 -0.168884,-0.579771 -0.05715,-0.0645 -0.128111,-0.115329 -0.207618,-0.148711 -0.07951,-0.03338 -0.165524,-0.04846 -0.251672,-0.04412 -0.08459,-0.0037 -0.16891,0.0117 -0.246671,0.04509 -0.07776,0.03339 -0.14695,0.0839 -0.202406,0.147742 -0.123032,0.167217 -0.182034,0.372888 -0.166317,0.579771 v 3.965165 l -2.60096,-3.934519 c -0.07292,-0.114932 -0.143299,-0.224755 -0.212381,-0.33075"
       fill="#000000"
       id="path1-1"
       style="stroke-width:0.264583" />
    <path
       d="m 109.90759,78.152628 c 0.0307,0.08488 0.0794,0.162004 0.14314,0.22598 0.0638,0.064 0.14049,0.113268 0.22542,0.144357 0.0839,0.03852 0.17516,0.05847 0.26723,0.05847 0.0923,0 0.18362,-0.01995 0.2675,-0.05847 0.1942,-0.110914 0.33999,-0.290433 0.40825,-0.503132 l 1.97009,-4.871863 c 0.0989,-0.198096 0.11906,-0.42622 0.0563,-0.638511 -0.0333,-0.08591 -0.0849,-0.163613 -0.15107,-0.227758 -0.0664,-0.06415 -0.14579,-0.113221 -0.23284,-0.143857 -0.0828,-0.03684 -0.17251,-0.05513 -0.26326,-0.05359 -0.0905,0.0015 -0.17965,0.02289 -0.26114,0.06253 -0.19235,0.110207 -0.33602,0.288386 -0.40296,0.499317 l -1.97035,4.864198 c -0.0971,0.198569 -0.11721,0.426032 -0.0564,0.638492 z m -22.607773,-0.07022 c -0.06096,-0.212487 -0.0409,-0.439949 0.0563,-0.638519 l 1.971517,-4.869302 c 0.06784,-0.210454 0.211428,-0.38835 0.403013,-0.499316 0.08157,-0.0393 0.170709,-0.06046 0.261276,-0.062 0.09057,-0.0015 0.180393,0.01656 0.26326,0.05306 0.08689,0.03129 0.166079,0.08075 0.232252,0.145055 0.0662,0.06431 0.117872,0.141989 0.151553,0.227838 0.06273,0.212294 0.0426,0.440415 -0.05628,0.638514 l -1.971543,4.873119 c -0.06855,0.212249 -0.2141,0.391266 -0.408119,0.501888 -0.08385,0.0385 -0.175075,0.05845 -0.267388,0.05845 -0.09231,0 -0.183515,-0.01995 -0.267388,-0.05845 -0.08475,-0.03154 -0.161608,-0.08112 -0.22524,-0.145282 -0.06363,-0.06419 -0.112501,-0.14142 -0.143219,-0.226351"
       fill="#54c0e8"
       id="path2-1"
       style="stroke-width:0.264583" />
    <text
       xml:space="preserve"
       transform="scale(0.26458333)"
       id="text1"
       style="font-style:normal;font-variant:normal;font-weight:normal;font-stretch:normal;font-size:5.33333px;font-family:'Kozuka Mincho Pro';-inkscape-font-specification:'Kozuka Mincho Pro';text-align:start;writing-mode:lr-tb;direction:ltr;white-space:pre;shape-inside:url(#rect1);display:inline;fill:#000000;fill-rule:evenodd" />
    <text
       xml:space="preserve"
       style="font-style:normal;font-variant:normal;font-weight:normal;font-stretch:normal;font-size:3.52778px;font-family:'Kozuka Mincho Pro';-inkscape-font-specification:'Kozuka Mincho Pro';text-align:start;writing-mode:lr-tb;direction:ltr;text-anchor:start;fill:#54c0e8;fill-opacity:1;fill-rule:evenodd;stroke-width:0.264583"
       x="87.915642"
       y="82.540489"
       id="text2"><tspan
         sodipodi:role="line"
         id="tspan2"
         style="font-style:normal;font-variant:normal;font-weight:normal;font-stretch:normal;font-size:3.52778px;font-family:'Leelawadee UI';-inkscape-font-specification:'Leelawadee UI';fill:#54c0e8;fill-opacity:1;stroke-width:0.264583"
         x="87.915642"
         y="82.540489">moving people</tspan></text>
  </g>
</svg>
